<?xml version="1.0" encoding="UTF-8"?>
<svg width="62px" height="62px" viewBox="0 0 62 62" version="1.1" xmlns="http://www.w3.org/2000/svg" xmlns:xlink="http://www.w3.org/1999/xlink">
    <title>favorite</title>
    <g id="Page-1" stroke="none" stroke-width="1" fill="none" fill-rule="evenodd">
        <g id="favorite" transform="translate(1.000000, 1.000000)" stroke="#000000">
            <path d="M40.742,17.733 C40.9496508,18.1539844 41.2522737,18.5209659 41.626,18.805 C42.0046344,19.0912779 42.4427609,19.2888108 42.908,19.383 L57.57,22.348 C58.7454591,22.5766837 59.6803193,23.4685888 59.964,24.632 C60.2361418,25.7907619 59.7974763,27.0008195 58.846,27.716 L47.438,36.37 C46.9929675,36.70322 46.6489177,37.1531846 46.444,37.67 C46.2404742,38.1837747 46.1850439,38.7443136 46.284,39.288 L49.362,56.42 C49.5689531,57.5871094 49.0693139,58.7666499 48.087,59.43 C47.0950071,60.1055153 45.806338,60.1620495 44.759,59.576 L31.579,52.169 C30.6187227,51.6316693 29.4482773,51.6316693 28.488,52.169 L15.307,59.576 C14.2604811,60.1640147 12.970987,60.1074273 11.98,59.43 C10.9976861,58.7666499 10.4980469,57.5871094 10.705,56.42 L13.783,39.291 C13.8819561,38.7473136 13.8265258,38.1867747 13.623,37.673 C13.4180823,37.1561846 13.0740325,36.70622 12.629,36.373 L1.221,27.719 C0.269523662,27.0038195 -0.169141823,25.7937619 0.103,24.635 C0.386752668,23.4720017 1.32104551,22.5802654 2.496,22.351 L17.156,19.386 C17.6211746,19.2925576 18.0591358,19.0949452 18.437,18.808 C18.8107356,18.5237106 19.1136331,18.156811 19.322,17.736 L27.24,1.723 C27.7741089,0.671136398 28.8538012,0.00846633728 30.0335,0.00846633728 C31.2131988,0.00846633728 32.2928911,0.671136398 32.827,1.723 L40.742,17.733 Z" id="rating"></path>
        </g>
    </g>
</svg>